<svg width="16" height="16" viewBox="0 0 16 16" fill="none" xmlns="http://www.w3.org/2000/svg">
    <path
        d="M5.23047 6.33894C5.23047 6.70264 5.30211 7.06279 5.44129 7.39882C5.58048 7.73484 5.78448 8.04016 6.04167 8.29734C6.29885 8.55452 6.60416 8.75853 6.94019 8.89771C7.27621 9.0369 7.63636 9.10854 8.00007 9.10854C8.36378 9.10854 8.72392 9.0369 9.05995 8.89771C9.39597 8.75853 9.70129 8.55452 9.95847 8.29734C10.2157 8.04016 10.4197 7.73484 10.5588 7.39882C10.698 7.06279 10.7697 6.70264 10.7697 6.33894C10.7697 5.97523 10.698 5.61508 10.5588 5.27906C10.4197 4.94303 10.2157 4.63771 9.95847 4.38053C9.70129 4.12335 9.39597 3.91934 9.05995 3.78016C8.72392 3.64097 8.36378 3.56934 8.00007 3.56934C7.63636 3.56934 7.27621 3.64097 6.94019 3.78016C6.60416 3.91934 6.29885 4.12335 6.04167 4.38053C5.78448 4.63771 5.58048 4.94303 5.44129 5.27906C5.30211 5.61508 5.23047 5.97523 5.23047 6.33894V6.33894Z"
        stroke="#fff" stroke-width="1.5" stroke-linecap="round" stroke-linejoin="round"/>
    <path
        d="M3.26953 13.4265C3.76411 12.6151 4.45907 11.9445 5.28762 11.4792C6.11617 11.0139 7.05046 10.7695 8.00073 10.7695C8.951 10.7695 9.8853 11.0139 10.7138 11.4792C11.5424 11.9445 12.2374 12.6151 12.7319 13.4265"
        stroke="#fff" stroke-width="1.5" stroke-linecap="round" stroke-linejoin="round"/>
    <path
        d="M0.800781 7.9998C0.800781 9.90936 1.55935 11.7407 2.90961 13.091C4.25987 14.4412 6.09122 15.1998 8.00078 15.1998C9.91034 15.1998 11.7417 14.4412 13.0919 13.091C14.4422 11.7407 15.2008 9.90936 15.2008 7.9998C15.2008 6.09025 14.4422 4.2589 13.0919 2.90864C11.7417 1.55837 9.91034 0.799805 8.00078 0.799805C6.09122 0.799805 4.25987 1.55837 2.90961 2.90864C1.55935 4.2589 0.800781 6.09025 0.800781 7.9998V7.9998Z"
        stroke="#fff" stroke-width="1.5" stroke-linecap="round" stroke-linejoin="round"/>
</svg>
